<svg width="116" height="54" viewBox="0 0 116 54" fill="none" xmlns="http://www.w3.org/2000/svg">
<path d="M114.139 29.0967H115.778V39.4794H114.351L114.154 38.3372C113.653 39.0047 112.849 39.5684 111.62 39.5684C109.511 39.5684 107.947 38.1148 107.947 35.6823C107.947 33.3387 109.511 31.7962 111.62 31.7962C112.803 31.7962 113.638 32.2708 114.139 32.9383V29.0967ZM109.632 35.6823C109.632 37.1803 110.527 38.2186 111.893 38.2186C113.259 38.2186 114.154 37.1803 114.154 35.7119C114.154 34.199 113.259 33.1607 111.893 33.1607C110.527 33.1607 109.632 34.199 109.632 35.6823Z" fill="#CECECE"/>
<path d="M103.117 39.5686C100.674 39.5686 99.1414 38.026 99.1414 35.6973C99.1414 33.3538 100.674 31.7964 102.965 31.7964C105.211 31.7964 106.714 33.1906 106.759 35.4155C106.759 35.6083 106.744 35.816 106.714 36.0236H100.856V36.1274C100.902 37.4178 101.737 38.2633 103.026 38.2633C104.028 38.2633 104.756 37.7739 104.984 36.9284H106.623C106.349 38.4265 105.045 39.5686 103.117 39.5686ZM100.917 34.8518H105.06C104.923 33.7246 104.119 33.0868 102.981 33.0868C101.934 33.0868 101.039 33.769 100.917 34.8518Z" fill="#CECECE"/>
<path d="M91.526 39.4795V33.2944H90.1753V31.8853H91.526V31.1289C91.526 29.7939 92.1933 29.0968 93.696 29.0968H95.0766V30.5059H93.9233C93.3926 30.5059 93.18 30.7284 93.18 31.2475V31.8853H97.672V39.4795H96.0326V33.2944H93.18V39.4795H91.526ZM95.866 29.8533C95.866 29.2896 96.306 28.8892 96.8673 28.8892C97.4286 28.8892 97.8686 29.2896 97.8686 29.8533C97.8686 30.4169 97.4286 30.8174 96.8673 30.8174C96.306 30.8174 95.866 30.4169 95.866 29.8533Z" fill="#CECECE"/>
<path d="M87.5673 31.8853H89.206V39.4795H87.5673V31.8853ZM87.4006 29.8533C87.4006 29.2896 87.8406 28.8892 88.402 28.8892C88.9633 28.8892 89.4033 29.2896 89.4033 29.8533C89.4033 30.4169 88.9633 30.8174 88.402 30.8174C87.8406 30.8174 87.4006 30.4169 87.4006 29.8533Z" fill="#CECECE"/>
<path d="M82.7313 37.4177V33.2943H81.3806V31.8852H82.7313V29.7642H84.3853V31.8852H86.282V33.2943H84.3853V37.2545C84.3853 37.8479 84.5973 38.0703 85.22 38.0703H86.3733V39.4794H84.8553C83.3686 39.4794 82.7313 38.7971 82.7313 37.4177Z" fill="#CECECE"/>
<path d="M76.4314 31.8857H77.8881L78.0701 33.0279C78.4647 32.39 79.0867 31.8857 80.3614 31.8857H80.7254V33.3839H79.9974C78.5407 33.3839 78.0701 34.4963 78.0701 35.668V39.48H76.4314V31.8857Z" fill="#CECECE"/>
<path d="M71.3127 39.5686C68.8693 39.5686 67.3367 38.026 67.3367 35.6973C67.3367 33.3538 68.8693 31.7964 71.1613 31.7964C73.4067 31.7964 74.9093 33.1906 74.9547 35.4155C74.9547 35.6083 74.9393 35.816 74.9093 36.0236H69.052V36.1274C69.0973 37.4178 69.932 38.2633 71.222 38.2633C72.2233 38.2633 72.9513 37.7739 73.1793 36.9284H74.818C74.5453 38.4265 73.24 39.5686 71.3127 39.5686ZM69.1127 34.8518H73.2553C73.1187 33.7246 72.314 33.0868 71.176 33.0868C70.1293 33.0868 69.234 33.769 69.1127 34.8518Z" fill="#CECECE"/>
<path d="M61.5838 39.5685C58.4881 39.5685 56.5609 37.4771 56.5609 34.2881C56.5609 31.1288 58.5488 29.0078 61.69 29.0078C64.118 29.0078 65.863 30.4317 66.212 32.6269H64.4062C64.0572 31.3217 63.0557 30.5059 61.6141 30.5059C59.5959 30.5059 58.3516 32.0633 58.3516 34.2881C58.3516 36.4982 59.5655 38.0704 61.5686 38.0704C63.0406 38.0704 64.0572 37.2695 64.3911 35.9494H66.1969C65.863 38.1445 64.0572 39.5685 61.5838 39.5685Z" fill="#CECECE"/>
<path d="M94.1574 14.814H95.8114V25.1967H94.1274V18.0771C93.9754 18.1661 93.7474 18.2106 93.4594 18.2106H91.7294V16.8015H93.3834C93.93 16.8015 94.1574 16.4158 94.1574 15.8671V14.814Z" fill="#CECECE"/>
<path d="M82.5206 19.7676C82.5206 16.7566 84.2353 14.7246 86.7086 14.7246C89.182 14.7246 90.8966 16.7566 90.8966 19.7676V20.2423C90.8966 23.3719 89.182 25.2853 86.7086 25.2853C84.2353 25.2853 82.5206 23.3719 82.5206 20.2423V19.7676ZM84.22 20.1829C84.22 22.5116 85.2213 23.8466 86.7086 23.8466C88.196 23.8466 89.1973 22.5116 89.1973 20.1829V19.827C89.1973 17.5131 88.196 16.1634 86.7086 16.1634C85.2213 16.1634 84.22 17.5131 84.22 19.827V20.1829Z" fill="#CECECE"/>
<path d="M72.8101 19.7676C72.8101 16.7566 74.5254 14.7246 76.9987 14.7246C79.4721 14.7246 81.1867 16.7566 81.1867 19.7676V20.2423C81.1867 23.3719 79.4721 25.2853 76.9987 25.2853C74.5254 25.2853 72.8101 23.3719 72.8101 20.2423V19.7676ZM74.5101 20.1829C74.5101 22.5116 75.5114 23.8466 76.9987 23.8466C78.4854 23.8466 79.4874 22.5116 79.4874 20.1829V19.827C79.4874 17.5131 78.4854 16.1634 76.9987 16.1634C75.5114 16.1634 74.5101 17.5131 74.5101 19.827V20.1829Z" fill="#CECECE"/>
<path d="M64.5417 14.814H72.1593V15.9115L67.182 25.1967H65.3763L70.3233 16.2527H64.5417V14.814Z" fill="#CECECE"/>
<path d="M60.4154 20.4796C61.3714 19.6935 62.0846 18.9667 62.0846 17.9729C62.0846 16.7863 61.2804 16.1337 60.0664 16.1337C58.8524 16.1337 58.033 16.9346 58.033 18.2251V18.4031H56.3486V18.1361C56.3486 16.1634 57.8053 14.7246 60.0664 14.7246C62.4488 14.7246 63.7842 16.0002 63.7842 17.8988C63.7842 19.4413 62.8282 20.4054 61.5383 21.4585L58.7158 23.7575H63.86V25.1963H56.3334V23.8763L60.4154 20.4796Z" fill="#CECECE"/>
<path d="M45.8088 22.9759C45.3773 21.8449 44.4912 20.8351 43.4127 20.107C40.2993 18.1331 35.5545 17.9926 32.3465 19.7771C30.5968 20.6677 29.4469 22.4303 29.089 24.2453C28.4399 27.2274 28.6075 30.7755 30.9085 33.0107C33.5915 35.3592 37.4965 35.878 40.9689 34.9133C41.1338 34.8816 41.6567 34.7502 42.0172 34.5592L42.1188 34.5157C43.1973 34.0683 44.2257 33.3397 44.9936 32.3529C46.7658 29.7657 46.8873 25.8893 45.8088 22.9759ZM40.1553 29.6724C40.0328 30.2379 39.6518 30.8238 39.051 31.0363C38.0945 31.4564 36.8006 31.34 35.9145 30.8485C35.1713 30.3297 35.0757 29.461 34.9801 28.639C34.9075 27.0187 34.7903 25.3029 35.2449 23.8215C35.6012 22.904 36.5841 22.6679 37.4728 22.5988C38.4062 22.5988 39.3149 22.7409 39.8915 23.4926C40.2504 24.0318 40.2284 24.7374 40.2993 25.3726C40.2741 26.7113 40.3944 28.308 40.1553 29.6724ZM11.7685 31.1318C10.9775 31.0835 10.0914 31.1528 9.32567 31.0588L9.34927 22.808L9.39767 22.7393L11.7685 22.7162C11.7932 21.377 11.8168 19.9407 11.7437 18.7201L2.71457 18.6949L1.22771 18.7206C1.20407 19.9654 1.20407 21.421 1.22771 22.6916C2.04288 22.7167 2.80807 22.6916 3.59906 22.765V30.7557L3.57595 31.0841L1.20407 31.1323C1.15463 32.4246 1.15463 33.7182 1.20407 35.0104H11.7679L11.7685 31.1318ZM38.3568 36.7713C37.3519 38.2066 36.0821 39.593 34.6958 40.6714C34.6453 40.7449 34.5018 40.717 34.4561 40.6494C33.8553 40.2744 33.2089 39.9674 32.6329 39.593C33.4002 38.6771 34.1434 37.7607 34.7183 36.7461H33.973C33.3777 37.6191 32.7533 38.5349 31.9633 39.3081C30.9085 38.8858 29.9509 38.5102 28.873 38.2259L28.7531 38.1363C28.9208 37.6614 29.2314 37.2156 29.3265 36.745H28.6801L28.0337 38.015C26.622 37.7097 25.0642 37.5434 23.6268 37.4506C23.5543 37.2397 23.6494 36.9339 23.5543 36.745H22.9315C22.882 37.0278 23.0035 37.2408 22.8595 37.4753C21.3742 37.5434 19.9373 37.7097 18.5493 37.9947L17.9002 36.745C17.6633 36.745 17.3967 36.7 17.2312 36.7702L17.8287 38.1572L17.7573 38.2259C16.6837 38.5361 15.6281 38.9054 14.5955 39.3322L14.5004 39.2839C13.8281 38.5553 13.1812 37.7596 12.6535 36.9602C12.5347 36.5584 12.0554 36.7933 11.7916 36.7461C12.3644 37.7816 13.1333 38.697 13.8985 39.6386C13.2521 40.0157 12.6078 40.4364 11.934 40.7449C10.4687 39.6307 9.1914 38.2895 8.15047 36.7724C7.8624 36.7262 7.67273 36.7472 7.38313 36.7724C9.108 39.4519 11.7916 41.8014 14.5944 43.1883C14.5944 43.1883 14.5944 43.1674 14.6202 43.1674C14.6406 43.1674 14.6885 43.2108 14.6406 43.2355C16.5343 44.1525 18.5477 44.8103 20.6778 45.0935C28.0326 46.0561 35.0521 42.9318 39.1219 36.7724C38.8676 36.7462 38.6112 36.7459 38.3568 36.7713ZM28.37 38.8864L28.4404 38.8391C29.4732 39.0741 30.4533 39.4036 31.3642 39.8489C30.5968 40.7165 29.6145 41.4703 28.7053 42.1045C28.1551 42.4323 27.6021 42.7886 27.0267 43.0687L25.9987 42.6223L26.0691 42.4597C26.9331 41.3088 27.6999 40.1322 28.37 38.8864ZM23.6494 38.1808C25.0159 38.2066 26.3818 38.3471 27.6495 38.6513L27.6747 38.7227C27.0051 39.9906 26.1647 41.2155 25.2561 42.3647C24.8466 42.413 24.4651 42.2504 24.0583 42.2252L23.6489 42.177C23.6021 40.79 23.5768 39.5678 23.6494 38.1808ZM19.0281 38.6036C20.2737 38.3686 21.5666 38.1808 22.9073 38.1808L22.932 42.1571C22.4279 42.2708 21.8772 42.2708 21.3979 42.3915C20.4156 41.2369 19.602 39.9906 18.9083 38.697L19.0281 38.6036ZM15.1694 39.8741C16.106 39.4261 17.0867 39.0951 18.0915 38.8386L18.1888 38.8633C18.8814 40.1563 19.7449 41.3775 20.6069 42.5997C20.2743 42.7891 19.8648 42.9023 19.5305 43.0933C17.9106 42.2943 16.4366 41.2293 15.1699 39.9428L15.1694 39.8741ZM18.2608 43.8928C16.2484 43.374 14.3784 42.4812 12.654 41.261V41.1881C13.229 40.8388 13.8061 40.4616 14.4267 40.2003C15.7933 41.5438 17.2054 42.5546 18.7385 43.5161C18.6192 43.6572 18.4279 43.7989 18.2608 43.8928ZM27.147 44.1965C24.6085 44.7405 21.7805 44.7614 19.2425 44.1514C19.1941 44.0344 19.3623 44.0092 19.4338 43.9405C21.6617 42.5053 25.1335 42.5053 27.3157 44.0548C27.3867 44.1964 27.1954 44.1514 27.147 44.1965ZM29.4474 43.5408L28.3217 43.8922C28.1293 43.7984 27.9627 43.6572 27.7935 43.5156L27.8418 43.4437C29.3754 42.5541 30.7639 41.4698 32.0821 40.1773C32.7291 40.4353 33.3524 40.79 33.9289 41.1876C32.5861 42.2504 31.0283 42.9522 29.4474 43.5408ZM8.10373 16.9093C8.6962 16.0905 9.34433 15.3134 10.0435 14.5834C10.6642 13.9959 11.2413 13.432 11.913 13.0071C12.5363 13.4062 13.2301 13.7389 13.8287 14.1134C13.0866 15.0255 12.3198 15.9462 11.769 16.9307C11.9356 17.0043 12.2483 16.9812 12.4885 16.9307C13.0866 16.0627 13.7314 15.1935 14.5009 14.4171C15.5283 14.7942 16.5359 15.1924 17.5913 15.4757L17.6842 15.569L17.0877 16.9307C17.3521 16.9812 17.5198 16.9565 17.7815 16.9307C17.9964 16.5337 18.163 16.0884 18.4027 15.6866C19.7939 15.9934 21.2555 16.1571 22.7407 16.2026C22.9309 16.3695 22.788 16.7205 22.86 16.9307H23.5065C23.5768 16.7 23.4823 16.4382 23.5768 16.2289C24.9675 16.156 26.4281 16.0149 27.7741 15.6854L27.8907 15.7101L28.5377 16.9297C28.7537 16.9297 29.0407 16.9801 29.2083 16.8814L28.6081 15.5218L28.6581 15.4746C29.758 15.1924 30.7897 14.7696 31.8435 14.3473C32.5883 15.1226 33.2809 16.039 33.9059 16.9291C34.1681 16.9291 34.4319 16.9549 34.6237 16.8808C34.3279 16.3561 33.9828 15.8607 33.5931 15.4011C33.2767 14.951 32.9237 14.5276 32.5377 14.1354V14.0136L34.2149 13.0516L34.4567 12.9577C35.9151 14.0599 37.1914 15.3837 38.2391 16.8808C38.5266 16.8808 38.7668 16.9796 39.007 16.861C35.7936 12.0703 30.5007 8.98789 24.7783 8.54414L24.7531 8.58979L24.7042 8.54414C24.0583 8.47491 23.2646 8.44755 22.5709 8.51678C22.3081 8.49638 21.9975 8.51678 21.6853 8.54414C15.9373 8.98789 10.6438 11.9275 7.33633 16.9319C7.576 16.9093 7.86353 17.0048 8.10373 16.9093ZM18.0464 14.8442L17.9507 14.8645C16.9674 14.6086 16.0082 14.3001 15.0979 13.902L15.1441 13.7609C16.4617 12.5156 17.8508 11.4806 19.3839 10.6834C19.7449 10.8244 20.1039 10.9409 20.4629 11.1078L20.3925 11.2912C19.4806 12.4222 18.7637 13.6418 18.0464 14.8442ZM22.8117 15.4767C22.1426 15.5706 21.5435 15.4558 20.8702 15.4038C20.2264 15.3093 19.4102 15.2412 18.7637 15.0266C19.4585 13.74 20.2743 12.492 21.2555 11.3433L22.7891 11.552C22.86 12.7721 22.8117 14.1831 22.8117 15.4767ZM23.5537 15.502C23.5065 14.2524 23.5311 12.8676 23.5537 11.5745C24.0347 11.5059 24.5591 11.4328 25.0395 11.3637C25.9734 12.537 26.8859 13.74 27.5092 15.0266C26.2139 15.3395 24.8863 15.4991 23.5537 15.502ZM31.1976 13.8543C30.2615 14.2518 29.3023 14.6285 28.2739 14.8442C27.5317 13.5984 26.7177 12.3531 25.8047 11.1496C26.1405 10.9655 26.55 10.8244 26.9084 10.6372C28.4684 11.412 29.9757 12.5156 31.2438 13.7807L31.1976 13.8543ZM28.1293 9.83562C30.1417 10.3539 32.0343 11.2456 33.7591 12.4679L33.7113 12.5617L32.0601 13.4771H31.9381C30.6705 12.2125 29.1857 11.1078 27.6747 10.2358C27.7225 10.0711 27.9633 9.95255 28.1293 9.83562ZM27.1723 9.59951V9.64939C25.0868 11.1496 21.7101 11.2912 19.5075 9.90426C19.3839 9.81038 19.1474 9.7648 19.1216 9.60004C21.6623 9.01525 24.6547 8.96801 27.1723 9.59951ZM12.5589 12.5156C14.0694 11.412 15.7454 10.5894 17.5187 10.025C17.5913 9.95149 17.6375 9.88226 17.732 9.88226V9.93056C17.9233 9.97673 18.0679 9.76367 18.235 9.9032C18.3795 10.025 18.5488 10.1178 18.667 10.2348C17.1829 11.1496 15.7207 12.2328 14.3789 13.5463C13.7319 13.3156 13.1355 12.9609 12.5584 12.5617L12.5589 12.5156ZM22.8363 31.3153C20.5849 31.9275 18.1399 31.4607 16.5117 29.7657C16.3209 29.5308 16.2 29.2507 16.0077 29.0168L12.7749 29.0393C12.7239 30.9424 12.7013 33.1288 12.7749 35.0099L16.3666 34.9868L16.4144 33.8579C16.8233 34.0457 17.2312 34.2802 17.6375 34.491C20.1286 35.5266 23.3355 35.7616 25.8036 34.491C27.6016 33.5065 28.5603 31.6034 28.2959 29.5544C28.0337 27.559 26.1163 25.7482 24.1776 25.2562L18.379 23.5859L17.9502 23.3735C17.7583 23.2104 17.638 23 17.6847 22.7393C18.1399 21.9656 19.1953 22.2006 19.9857 22.2215C21.6623 22.4571 23.3866 23.021 24.3694 24.5495C25.4221 24.5495 26.6435 24.57 27.7924 24.5249C27.8413 22.5982 27.7736 20.907 27.7451 18.9557C26.6671 18.931 25.349 18.931 24.2727 18.9803C24.2243 19.2599 24.3189 19.658 24.1991 19.9413L23.0981 19.3532C20.4618 18.249 16.7723 18.1337 14.3779 19.8495C12.8201 20.9757 12.3423 22.999 12.7497 24.7845C13.0597 26.4741 14.6885 27.721 16.2463 28.3069C18.3779 29.0581 20.6047 29.6021 22.7643 30.3297C22.9782 30.4252 23.2651 30.6382 23.2189 30.8962C23.22 31.105 23.0029 31.2257 22.8363 31.3153Z" fill="#CECECE"/>
</svg>
