<svg width="96" height="31" viewBox="0 0 96 31" fill="none" xmlns="http://www.w3.org/2000/svg">
<path d="M91.7967 14.7275V30.6625H89.0302V14.7275H84.8151V12.0938H95.9999V14.7275H91.7967Z" fill="white"/>
<path d="M83.5213 14.7275H77.1333V19.1893H83.2957V21.8231H77.1333V30.6625H74.3668V12.0938H83.5213V14.7275Z" fill="white"/>
<path d="M51.7256 21.2933C51.7256 18.6796 52.6715 16.4347 54.5633 14.5586C56.4473 12.6824 58.7112 11.7444 61.355 11.7444C63.9672 11.7444 66.2073 12.6905 68.0754 14.5826C69.9514 16.4748 70.8894 18.7477 70.8894 21.4016C70.8894 24.0714 69.9474 26.3364 68.0635 28.1964C66.1717 30.0645 63.888 30.9986 61.2125 30.9986C58.8457 30.9986 56.7204 30.1688 54.8364 28.5091C52.7625 26.6731 51.7256 24.2678 51.7256 21.2933ZM54.5159 21.3294C54.5159 23.3819 55.1966 25.0696 56.5581 26.3925C57.9117 27.7154 59.475 28.3768 61.2481 28.3768C63.1716 28.3768 64.7943 27.7034 66.1163 26.3564C67.4382 24.9934 68.0991 23.3338 68.0991 21.3775C68.0991 19.3972 67.4461 17.7375 66.14 16.3986C64.8418 15.0516 63.235 14.3782 61.3194 14.3782C59.4117 14.3782 57.8009 15.0516 56.4869 16.3986C55.1729 17.7295 54.5159 19.3731 54.5159 21.3294Z" fill="white"/>
<path d="M48.8283 14.8606L46.5842 16.2076C46.1647 15.47 45.7649 14.9889 45.385 14.7644C44.9892 14.5078 44.4786 14.3796 43.8533 14.3796C43.0855 14.3796 42.4483 14.6 41.9417 15.041C41.4351 15.474 41.1817 16.0192 41.1817 16.6766C41.1817 17.5826 41.8467 18.3122 43.1765 18.8654L45.005 19.6231C46.4932 20.2324 47.5816 20.978 48.2702 21.86C48.9589 22.7339 49.3032 23.8082 49.3032 25.083C49.3032 26.7908 48.7412 28.2019 47.6172 29.3163C46.4852 30.4388 45.0802 31 43.4021 31C41.811 31 40.497 30.523 39.4601 29.5689C38.439 28.6148 37.8018 27.2718 37.5485 25.54L40.3506 24.9147C40.4773 26.0051 40.6989 26.7587 41.0155 27.1756C41.5854 27.9774 42.4166 28.3783 43.509 28.3783C44.3718 28.3783 45.0881 28.0856 45.6581 27.5003C46.228 26.915 46.5129 26.1734 46.5129 25.2755C46.5129 24.9147 46.4615 24.5859 46.3586 24.2893C46.2636 23.9846 46.1092 23.708 45.8955 23.4595C45.6897 23.2029 45.4206 22.9664 45.0881 22.7499C44.7557 22.5254 44.3599 22.313 43.9008 22.1125L42.1316 21.3669C39.6224 20.2925 38.3677 18.7211 38.3677 16.6525C38.3677 15.2575 38.8941 14.0909 39.9469 13.1529C40.9997 12.2068 42.3097 11.7338 43.877 11.7338C45.9905 11.7338 47.6409 12.776 48.8283 14.8606Z" fill="white"/>
<path d="M0 0H10.2124V15.2678L20.074 0H30.1464V10.5591L10.2124 15.2678L30.1464 20.6468V31H20.074L10.2124 15.2678V31H0V20.6468L10.2124 15.2678L0 10.5591V0Z" fill="#1D1D1D"/>
<path d="M0 0H10.2124V15.2678L20.074 0H30.1464V10.5591L10.2124 15.2678L30.1464 20.6468V31H20.074L10.2124 15.2678V31H0V20.6468L10.2124 15.2678L0 10.5591V0Z" fill="white"/>
</svg>
